<?xml version="1.0" standalone="yes"?>

<svg version="1.1"  viewBox="0.0 0.0 786.6194225721785 291.246719160105" width="786.6194225721785" height="291.246719160105" _mldb="1" fill="none" stroke="none" stroke-linecap="square" stroke-miterlimit="10" xmlns="http://www.w3.org/2000/svg" xmlns:xlink="http://www.w3.org/1999/xlink"><clipPath id="p.0"><path d="m0 0l786.61945 0l0 291.2467l-786.61945 0l0 -291.2467z" clip-rule="nonzero"></path></clipPath><g clip-path="url(#p.0)"><path fill="#000000" fill-opacity="0.0" d="m0 0l786.61945 0l0 291.2467l-786.61945 0z" fill-rule="nonzero"></path><path fill="#000000" fill-opacity="0.0" d="m102.33071 228.49344l503.05508 0" fill-rule="nonzero"></path><path stroke="#000000" stroke-width="1.0" stroke-linejoin="round" stroke-linecap="butt" d="m102.33071 228.49344l497.05508 0" fill-rule="evenodd"></path><path fill="#000000" stroke="#000000" stroke-width="1.0" stroke-linecap="butt" d="m599.3858 230.14517l4.538147 -1.6517334l-4.538147 -1.6517334z" fill-rule="evenodd"></path><path fill="#000000" fill-opacity="0.0" d="m28.88189 244.72441l73.44882 0l0 34.173233l-73.44882 0z" fill-rule="nonzero"></path><path fill="#000000" d="m59.317844 275.42566l0 -13.640625l1.53125 0l0 1.28125q0.53125 -0.75 1.203125 -1.125q0.6875 -0.375 1.640625 -0.375q1.2656288 0 2.2343788 0.65625q0.96875 0.640625 1.453125 1.828125q0.5 1.1875 0.5 2.59375q0 1.515625 -0.546875 2.734375q-0.546875 1.203125 -1.578125 1.84375q-1.03125 0.640625 -2.1718788 0.640625q-0.84375 0 -1.515625 -0.34375q-0.65625 -0.359375 -1.078125 -0.890625l0 4.796875l-1.671875 0zm1.515625 -8.65625q0 1.90625 0.765625 2.8125q0.78125 0.90625 1.875 0.90625q1.1093788 0 1.8906288 -0.9375q0.796875 -0.9375 0.796875 -2.921875q0 -1.875 -0.78125 -2.8125q-0.765625 -0.9375 -1.8437538 -0.9375q-1.0625 0 -1.890625 1.0q-0.8125 1.0 -0.8125 2.890625zm15.297596 3.65625q-0.9375 0.796875 -1.796875 1.125q-0.859375 0.3125 -1.84375 0.3125q-1.609375 0 -2.484375 -0.78125q-0.875 -0.796875 -0.875 -2.03125q0 -0.734375 0.328125 -1.328125q0.328125 -0.59375 0.859375 -0.953125q0.53125 -0.359375 1.203125 -0.546875q0.5 -0.140625 1.484375 -0.25q2.03125 -0.25 2.984375 -0.578125q0 -0.34375 0 -0.4375q0 -1.015625 -0.46875 -1.4375q-0.640625 -0.5625 -1.90625 -0.5625q-1.171875 0 -1.734375 0.40625q-0.5625 0.40625 -0.828125 1.46875l-1.640625 -0.234375q0.234375 -1.046875 0.734375 -1.6875q0.515625 -0.640625 1.46875 -0.984375q0.96875 -0.359375 2.25 -0.359375q1.265625 0 2.046875 0.296875q0.78125 0.296875 1.15625 0.75q0.375 0.453125 0.515625 1.140625q0.09375 0.421875 0.09375 1.53125l0 2.234375q0 2.328125 0.09375 2.953125q0.109375 0.609375 0.4375 1.171875l-1.75 0q-0.265625 -0.515625 -0.328125 -1.21875zm-0.140625 -3.71875q-0.90625 0.359375 -2.734375 0.625q-1.03125 0.140625 -1.453125 0.328125q-0.421875 0.1875 -0.65625 0.546875q-0.234375 0.359375 -0.234375 0.796875q0 0.671875 0.5 1.125q0.515625 0.4375 1.484375 0.4375q0.96875 0 1.71875 -0.421875q0.75 -0.4375 1.109375 -1.15625q0.265625 -0.578125 0.265625 -1.671875l0 -0.609375zm3.4069672 2.0l1.65625 -0.265625q0.140625 1.0 0.765625 1.53125q0.640625 0.515625 1.78125 0.515625q1.15625 0 1.703125 -0.46875q0.5625 -0.46875 0.5625 -1.09375q0 -0.5625 -0.484375 -0.890625q-0.34375 -0.21875 -1.703125 -0.5625q-1.84375 -0.46875 -2.5625 -0.796875q-0.703125 -0.34375 -1.078125 -0.9375q-0.359375 -0.609375 -0.359375 -1.328125q0 -0.65625 0.296875 -1.21875q0.3125 -0.5625 0.828125 -0.9375q0.390625 -0.28125 1.0625 -0.484375q0.671875 -0.203125 1.4375 -0.203125q1.171875 0 2.046875 0.34375q0.875 0.328125 1.28125 0.90625q0.421875 0.5625 0.578125 1.515625l-1.625 0.21875q-0.109375 -0.75 -0.65625 -1.171875q-0.53125 -0.4375 -1.5 -0.4375q-1.15625 0 -1.640625 0.390625q-0.484375 0.375 -0.484375 0.875q0 0.328125 0.203125 0.59375q0.203125 0.265625 0.640625 0.4375q0.25 0.09375 1.46875 0.4375q1.765625 0.46875 2.46875 0.765625q0.703125 0.296875 1.09375 0.875q0.40625 0.578125 0.40625 1.4375q0 0.828125 -0.484375 1.578125q-0.484375 0.734375 -1.40625 1.140625q-0.921875 0.390625 -2.078125 0.390625q-1.921875 0 -2.9375 -0.796875q-1.0 -0.796875 -1.28125 -2.359375zm13.65625 1.4375l0.234375 1.484375q-0.703125 0.140625 -1.265625 0.140625q-0.90625 0 -1.40625 -0.28125q-0.5 -0.296875 -0.703125 -0.75q-0.203125 -0.46875 -0.203125 -1.984375l0 -5.65625l-1.234375 0l0 -1.3125l1.234375 0l0 -2.4375l1.65625 -1.0l0 3.4375l1.6875 0l0 1.3125l-1.6875 0l0 5.75q0 0.71875 0.078125 0.921875q0.09375 0.203125 0.296875 0.328125q0.203125 0.125 0.578125 0.125q0.265625 0 0.734375 -0.078125z" fill-rule="nonzero"></path><path fill="#000000" fill-opacity="0.0" d="m605.3858 244.72441l73.44885 0l0 34.173233l-73.44885 0z" fill-rule="nonzero"></path><path fill="#000000" d="m615.6358 271.6444l0 -9.859375l1.5 0l0 1.40625q1.09375 -1.625 3.140625 -1.625q0.890625 0 1.640625 0.328125q0.75 0.3125 1.109375 0.84375q0.375 0.515625 0.53125 1.21875q0.09375 0.46875 0.09375 1.625l0 6.0625l-1.671875 0l0 -6.0q0 -1.015625 -0.203125 -1.515625q-0.1875 -0.515625 -0.6875 -0.8125q-0.5 -0.296875 -1.171875 -0.296875q-1.0625 0 -1.84375 0.671875q-0.765625 0.671875 -0.765625 2.578125l0 5.375l-1.671875 0zm9.750732 -4.921875q0 -2.734375 1.53125 -4.0625q1.265625 -1.09375 3.09375 -1.09375q2.03125 0 3.3125 1.34375q1.296875 1.328125 1.296875 3.671875q0 1.90625 -0.578125 3.0q-0.5625 1.078125 -1.65625 1.6875q-1.078125 0.59375 -2.375 0.59375q-2.0625 0 -3.34375 -1.328125q-1.28125 -1.328125 -1.28125 -3.8125zm1.71875 0q0 1.890625 0.828125 2.828125q0.828125 0.9375 2.078125 0.9375q1.25 0 2.0625 -0.9375q0.828125 -0.953125 0.828125 -2.890625q0 -1.828125 -0.828125 -2.765625q-0.828125 -0.9375 -2.0625 -0.9375q-1.25 0 -2.078125 0.9375q-0.828125 0.9375 -0.828125 2.828125zm11.110107 4.921875l-3.015625 -9.859375l1.71875 0l1.5625 5.6875l0.59375 2.125q0.03125 -0.15625 0.5 -2.03125l1.578125 -5.78125l1.71875 0l1.46875 5.71875l0.484375 1.890625l0.578125 -1.90625l1.6875 -5.703125l1.625 0l-3.078125 9.859375l-1.734375 0l-1.578125 -5.90625l-0.375 -1.671875l-2.0 7.578125l-1.734375 0z" fill-rule="nonzero"></path><path fill="#000000" fill-opacity="0.0" d="m239.83727 244.72441l228.03151 0l0 34.173233l-228.03151 0z" fill-rule="nonzero"></path><path fill="#000000" d="m267.6734 263.7694l0.421875 -1.984375l1.296875 0l0.3125 -1.578125l3.0625 -1.828125l-0.71875 3.40625l1.625 0l-0.40625 1.984375l-1.640625 0l-0.859375 4.125q-0.234375 1.125 -0.234375 1.28125q0 0.3125 0.1875 0.484375q0.203125 0.171875 0.71875 0.171875q0.171875 0 0.875 -0.078125l-0.40625 1.984375q-0.6875 0.140625 -1.421875 0.140625q-1.40625 0 -2.046875 -0.546875q-0.640625 -0.546875 -0.640625 -1.5q0 -0.453125 0.34375 -2.109375l0.828125 -3.953125l-1.296875 0zm8.384552 -5.71875l2.671875 0l-0.5 2.40625l-2.671875 0l0.5 -2.40625zm-0.765625 3.734375l2.65625 0l-2.0625 9.859375l-2.65625 0l2.0625 -9.859375zm5.089569 0l2.5 0l-0.25 1.203125q1.46875 -1.421875 3.09375 -1.421875q1.109375 0 1.703125 0.46875q0.609375 0.453125 0.78125 1.265625q0.5 -0.734375 1.453125 -1.234375q0.96875 -0.5 2.0 -0.5q1.171875 0 1.828125 0.625q0.65625 0.625 0.65625 1.671875q0 0.5 -0.25 1.765625l-1.265625 6.015625l-2.65625 0l1.25 -6.015625q0.234375 -1.140625 0.234375 -1.28125q0 -0.40625 -0.25 -0.640625q-0.234375 -0.25 -0.734375 -0.25q-0.984375 0 -1.765625 1.046875q-0.5625 0.75 -0.96875 2.671875l-0.9375 4.46875l-2.65625 0l1.234375 -5.953125q0.21875 -1.03125 0.21875 -1.34375q0 -0.390625 -0.265625 -0.640625q-0.265625 -0.25 -0.734375 -0.25q-0.4375 0 -0.90625 0.265625q-0.453125 0.265625 -0.796875 0.71875q-0.34375 0.453125 -0.609375 1.15625q-0.109375 0.34375 -0.359375 1.515625l-0.9375 4.53125l-2.671875 0l2.0625 -9.859375zm24.213379 5.765625l-6.6875 0q0 0.15625 0 0.234375q0 0.984375 0.546875 1.59375q0.5625 0.59375 1.375 0.59375q1.328125 0 2.0625 -1.375l2.390625 0.40625q-0.6875 1.4375 -1.859375 2.15625q-1.171875 0.71875 -2.609375 0.71875q-1.984375 0 -3.234375 -1.25q-1.234375 -1.265625 -1.234375 -3.328125q0 -2.03125 1.125 -3.609375q1.515625 -2.125 4.359375 -2.125q1.8125 0 2.875 1.125q1.078125 1.109375 1.078125 3.125q0 0.953125 -0.1875 1.734375zm-2.25 -1.625q0.015625 -0.1875 0.015625 -0.28125q0 -1.09375 -0.5 -1.640625q-0.484375 -0.546875 -1.3125 -0.546875q-0.828125 0 -1.484375 0.625q-0.65625 0.625 -0.890625 1.84375l4.171875 0zm2.6882324 2.96875l2.578125 -0.40625q0.34375 0.8125 0.84375 1.15625q0.515625 0.328125 1.390625 0.328125q0.921875 0 1.46875 -0.40625q0.375 -0.28125 0.375 -0.671875q0 -0.28125 -0.1875 -0.484375q-0.203125 -0.203125 -1.109375 -0.5q-2.40625 -0.796875 -2.984375 -1.265625q-0.90625 -0.71875 -0.90625 -1.890625q0 -1.171875 0.875 -2.015625q1.21875 -1.171875 3.609375 -1.171875q1.90625 0 2.875 0.703125q0.96875 0.6875 1.234375 1.875l-2.453125 0.421875q-0.203125 -0.53125 -0.640625 -0.8125q-0.59375 -0.359375 -1.421875 -0.359375q-0.84375 0 -1.21875 0.28125q-0.359375 0.28125 -0.359375 0.640625q0 0.375 0.375 0.609375q0.234375 0.15625 1.5 0.515625q1.9375 0.578125 2.609375 1.125q0.921875 0.765625 0.921875 1.84375q0 1.40625 -1.1875 2.4375q-1.171875 1.03125 -3.3125 1.03125q-2.140625 0 -3.3125 -0.78125q-1.15625 -0.796875 -1.5625 -2.203125zm11.375702 -5.125l0.421875 -1.984375l1.296875 0l0.3125 -1.578125l3.0625 -1.828125l-0.71875 3.40625l1.625 0l-0.40625 1.984375l-1.640625 0l-0.859375 4.125q-0.234375 1.125 -0.234375 1.28125q0 0.3125 0.1875 0.484375q0.203125 0.171875 0.71875 0.171875q0.171875 0 0.875 -0.078125l-0.40625 1.984375q-0.6875 0.140625 -1.421875 0.140625q-1.40625 0 -2.046875 -0.546875q-0.640625 -0.546875 -0.640625 -1.5q0 -0.453125 0.34375 -2.109375l0.828125 -3.953125l-1.296875 0zm9.306427 0.8125l-2.59375 -0.21875q0.4375 -1.3125 1.546875 -2.046875q1.109375 -0.75 2.9375 -0.75q1.90625 0 2.8125 0.765625q0.90625 0.765625 0.90625 1.859375q0 0.453125 -0.078125 0.953125q-0.078125 0.5 -0.546875 2.625q-0.390625 1.765625 -0.390625 2.46875q0 0.640625 0.21875 1.40625l-2.578125 0q-0.15625 -0.53125 -0.203125 -1.109375q-0.578125 0.640625 -1.34375 1.0q-0.765625 0.34375 -1.53125 0.34375q-1.21875 0 -2.015625 -0.796875q-0.796875 -0.8125 -0.796875 -2.078125q0 -1.40625 0.875 -2.25q0.875 -0.84375 3.125 -1.015625q1.90625 -0.15625 2.546875 -0.390625q0.171875 -0.546875 0.171875 -0.890625q0 -0.421875 -0.34375 -0.703125q-0.34375 -0.296875 -1.03125 -0.296875q-0.703125 0 -1.125 0.296875q-0.40625 0.296875 -0.5625 0.828125zm2.53125 2.46875q-0.234375 0.0625 -0.640625 0.125q-2.0 0.234375 -2.609375 0.703125q-0.4375 0.328125 -0.4375 0.90625q0 0.453125 0.328125 0.78125q0.34375 0.3125 0.890625 0.3125q0.59375 0 1.125 -0.28125q0.546875 -0.296875 0.796875 -0.75q0.265625 -0.46875 0.484375 -1.4375l0.0625 -0.359375zm6.0632324 -5.265625l2.5 0l-0.25 1.203125q1.46875 -1.421875 3.09375 -1.421875q1.109375 0 1.703125 0.46875q0.609375 0.453125 0.78125 1.265625q0.5 -0.734375 1.453125 -1.234375q0.96875 -0.5 2.0 -0.5q1.171875 0 1.828125 0.625q0.65625 0.625 0.65625 1.671875q0 0.5 -0.25 1.765625l-1.265625 6.015625l-2.65625 0l1.25 -6.015625q0.234375 -1.140625 0.234375 -1.28125q0 -0.40625 -0.25 -0.640625q-0.234375 -0.25 -0.734375 -0.25q-0.984375 0 -1.765625 1.046875q-0.5625 0.75 -0.96875 2.671875l-0.9375 4.46875l-2.65625 0l1.234375 -5.953125q0.21875 -1.03125 0.21875 -1.34375q0 -0.390625 -0.265625 -0.640625q-0.265625 -0.25 -0.734375 -0.25q-0.4375 0 -0.90625 0.265625q-0.453125 0.265625 -0.796875 0.71875q-0.34375 0.453125 -0.609375 1.15625q-0.109375 0.34375 -0.359375 1.515625l-0.9375 4.53125l-2.671875 0l2.0625 -9.859375zm16.588379 0l2.53125 0l-0.21875 1.015625q0.8125 -0.671875 1.515625 -0.953125q0.703125 -0.28125 1.515625 -0.28125q1.546875 0 2.484375 1.0625q0.9375 1.0625 0.9375 3.1875q0 2.65625 -1.625 4.484375q-1.390625 1.578125 -3.28125 1.578125q-1.96875 0 -2.96875 -1.59375l-1.0625 5.109375l-2.671875 0l2.84375 -13.609375zm1.609375 5.65625q0 1.15625 0.5625 1.796875q0.5625 0.625 1.3125 0.625q0.671875 0 1.28125 -0.46875q0.609375 -0.484375 1.015625 -1.59375q0.40625 -1.109375 0.40625 -2.0625q0 -1.09375 -0.53125 -1.6875q-0.53125 -0.59375 -1.34375 -0.59375q-0.765625 0 -1.390625 0.546875q-0.625 0.546875 -0.96875 1.609375q-0.34375 1.046875 -0.34375 1.828125zm13.391785 0.109375q0 -2.734375 1.53125 -4.359375q1.5469055 -1.625 4.0625305 -1.625q2.1875 0 3.40625 1.203125q1.234375 1.1875 1.234375 3.21875q0 2.40625 -1.53125 4.15625q-1.53125 1.734375 -4.109375 1.734375q-1.390625 0 -2.46875 -0.546875q-1.0781555 -0.5625 -1.6094055 -1.578125q-0.515625 -1.03125 -0.515625 -2.203125zm7.5781555 -1.90625q0 -0.9375 -0.546875 -1.5q-0.546875 -0.578125 -1.421875 -0.578125q-0.859375 0 -1.53125 0.53125q-0.671875 0.53125 -1.046875 1.546875q-0.359375 1.015625 -0.359375 1.875q0 1.046875 0.5625 1.671875q0.578125 0.625 1.453125 0.625q1.09375 0 1.84375 -0.9375q1.046875 -1.328125 1.046875 -3.234375zm5.5209656 -3.859375l2.515625 0l-0.25 1.28125q0.9375 -0.8125 1.75 -1.15625q0.828125 -0.34375 1.75 -0.34375q1.203125 0 1.90625 0.703125q0.703125 0.6875 0.703125 1.828125q0 0.53125 -0.3125 1.96875l-1.15625 5.578125l-2.65625 0l1.171875 -5.59375q0.25 -1.25 0.25 -1.5q0 -0.5 -0.296875 -0.796875q-0.296875 -0.296875 -0.84375 -0.296875q-0.578125 0 -1.296875 0.5q-0.71875 0.484375 -1.125 1.296875q-0.296875 0.578125 -0.65625 2.34375l-0.859375 4.046875l-2.65625 0l2.0625 -9.859375zm24.079285 5.765625l-6.6875 0q0 0.15625 0 0.234375q0 0.984375 0.546875 1.59375q0.5625 0.59375 1.375 0.59375q1.328125 0 2.0625 -1.375l2.390625 0.40625q-0.6875 1.4375 -1.859375 2.15625q-1.171875 0.71875 -2.609375 0.71875q-1.984375 0 -3.234375 -1.25q-1.234375 -1.265625 -1.234375 -3.328125q0 -2.03125 1.125 -3.609375q1.515625 -2.125 4.359375 -2.125q1.8125 0 2.875 1.125q1.078125 1.109375 1.078125 3.125q0 0.953125 -0.1875 1.734375zm-2.25 -1.625q0.015625 -0.1875 0.015625 -0.28125q0 -1.09375 -0.5 -1.640625q-0.484375 -0.546875 -1.3125 -0.546875q-0.828125 0 -1.484375 0.625q-0.65625 0.625 -0.890625 1.84375l4.171875 0zm7.9538574 5.71875l-2.296875 0l-1.96875 -9.859375l2.609375 0l0.703125 4.296875q0.28125 1.75 0.34375 2.328125q0.078125 -0.15625 0.640625 -1.203125q0.578125 -1.046875 0.703125 -1.265625l2.453125 -4.15625l2.875 0l-6.0625 9.859375zm15.047577 -4.09375l-6.6875 0q0 0.15625 0 0.234375q0 0.984375 0.546875 1.59375q0.5625 0.59375 1.375 0.59375q1.328125 0 2.0625 -1.375l2.390625 0.40625q-0.6875 1.4375 -1.859375 2.15625q-1.171875 0.71875 -2.609375 0.71875q-1.984375 0 -3.234375 -1.25q-1.234375 -1.265625 -1.234375 -3.328125q0 -2.03125 1.125 -3.609375q1.515625 -2.125 4.359375 -2.125q1.8125 0 2.875 1.125q1.078125 1.109375 1.078125 3.125q0 0.953125 -0.1875 1.734375zm-2.25 -1.625q0.015625 -0.1875 0.015625 -0.28125q0 -1.09375 -0.5 -1.640625q-0.484375 -0.546875 -1.3125 -0.546875q-0.828125 0 -1.484375 0.625q-0.65625 0.625 -0.890625 1.84375l4.171875 0zm5.1257324 -4.140625l2.515625 0l-0.25 1.28125q0.9375 -0.8125 1.75 -1.15625q0.828125 -0.34375 1.75 -0.34375q1.203125 0 1.90625 0.703125q0.703125 0.6875 0.703125 1.828125q0 0.53125 -0.3125 1.96875l-1.15625 5.578125l-2.65625 0l1.171875 -5.59375q0.25 -1.25 0.25 -1.5q0 -0.5 -0.296875 -0.796875q-0.296875 -0.296875 -0.84375 -0.296875q-0.578125 0 -1.296875 0.5q-0.71875 0.484375 -1.125 1.296875q-0.296875 0.578125 -0.65625 2.34375l-0.859375 4.046875l-2.65625 0l2.0625 -9.859375zm9.958466 1.984375l0.421875 -1.984375l1.296875 0l0.3125 -1.578125l3.0625 -1.828125l-0.71875 3.40625l1.625 0l-0.40625 1.984375l-1.640625 0l-0.859375 4.125q-0.234375 1.125 -0.234375 1.28125q0 0.3125 0.1875 0.484375q0.203125 0.171875 0.71875 0.171875q0.171875 0 0.875 -0.078125l-0.40625 1.984375q-0.6875 0.140625 -1.421875 0.140625q-1.40625 0 -2.046875 -0.546875q-0.640625 -0.546875 -0.640625 -1.5q0 -0.453125 0.34375 -2.109375l0.828125 -3.953125l-1.296875 0z" fill-rule="nonzero"></path><path fill="#9fc5e8" d="m511.65353 52.769028l0 0c0 -21.247742 35.81015 -38.47244 79.98428 -38.47244l0 0c44.174072 0 79.98425 17.224697 79.98425 38.47244l0 0c0 21.247742 -35.81018 38.472443 -79.98425 38.472443l0 0c-44.174133 0 -79.98428 -17.2247 -79.98428 -38.472443z" fill-rule="nonzero"></path><path stroke="#000000" stroke-width="2.0" stroke-linejoin="round" stroke-linecap="butt" d="m511.65353 52.769028l0 0c0 -21.247742 35.81015 -38.47244 79.98428 -38.47244l0 0c44.174072 0 79.98425 17.224697 79.98425 38.47244l0 0c0 21.247742 -35.81018 38.472443 -79.98425 38.472443l0 0c-44.174133 0 -79.98428 -17.2247 -79.98428 -38.472443z" fill-rule="nonzero"></path><path fill="#000000" d="m560.9591 59.689026l0 -13.59375l4.6875 0q1.578125 0 2.421875 0.1875q1.15625 0.265625 1.984375 0.96875q1.078125 0.921875 1.609375 2.34375q0.53125 1.40625 0.53125 3.21875q0 1.546875 -0.359375 2.75q-0.359375 1.1875 -0.921875 1.984375q-0.5625 0.78125 -1.234375 1.234375q-0.671875 0.4375 -1.625 0.671875q-0.953125 0.234375 -2.1875 0.234375l-4.90625 0zm1.796875 -1.609375l2.90625 0q1.34375 0 2.109375 -0.25q0.765625 -0.25 1.21875 -0.703125q0.640625 -0.640625 1.0 -1.71875q0.359375 -1.078125 0.359375 -2.625q0 -2.125 -0.703125 -3.265625q-0.703125 -1.15625 -1.703125 -1.546875q-0.71875 -0.28125 -2.328125 -0.28125l-2.859375 0l0 10.390625zm17.894836 0.390625q-0.9375 0.796875 -1.796875 1.125q-0.859375 0.3125 -1.84375 0.3125q-1.609375 0 -2.484375 -0.78125q-0.875 -0.796875 -0.875 -2.03125q0 -0.734375 0.328125 -1.328125q0.328125 -0.59375 0.859375 -0.953125q0.53125 -0.359375 1.203125 -0.546875q0.5 -0.140625 1.484375 -0.25q2.03125 -0.25 2.984375 -0.578125q0 -0.34375 0 -0.4375q0 -1.015625 -0.46875 -1.4375q-0.640625 -0.5625 -1.90625 -0.5625q-1.171875 0 -1.734375 0.40625q-0.5625 0.40625 -0.828125 1.46875l-1.640625 -0.234375q0.234375 -1.046875 0.734375 -1.6875q0.515625 -0.640625 1.46875 -0.984375q0.96875 -0.359375 2.25 -0.359375q1.265625 0 2.046875 0.296875q0.78125 0.296875 1.15625 0.75q0.375 0.453125 0.515625 1.140625q0.09375 0.421875 0.09375 1.53125l0 2.234375q0 2.328125 0.09375 2.953125q0.109375 0.609375 0.4375 1.171875l-1.75 0q-0.265625 -0.515625 -0.328125 -1.21875zm-0.140625 -3.71875q-0.90625 0.359375 -2.734375 0.625q-1.03125 0.140625 -1.453125 0.328125q-0.421875 0.1875 -0.65625 0.546875q-0.234375 0.359375 -0.234375 0.796875q0 0.671875 0.5 1.125q0.515625 0.4375 1.484375 0.4375q0.96875 0 1.71875 -0.421875q0.75 -0.4375 1.109375 -1.15625q0.265625 -0.578125 0.265625 -1.671875l0 -0.609375zm7.7351074 3.4375l0.234375 1.484375q-0.703125 0.140625 -1.265625 0.140625q-0.90625 0 -1.40625 -0.28125q-0.5 -0.296875 -0.703125 -0.75q-0.203125 -0.46875 -0.203125 -1.984375l0 -5.65625l-1.234375 0l0 -1.3125l1.234375 0l0 -2.4375l1.65625 -1.0l0 3.4375l1.6875 0l0 1.3125l-1.6875 0l0 5.75q0 0.71875 0.078125 0.921875q0.09375 0.203125 0.296875 0.328125q0.203125 0.125 0.578125 0.125q0.265625 0 0.734375 -0.078125zm7.9645386 0.28125q-0.9375 0.796875 -1.796875 1.125q-0.859375 0.3125 -1.84375 0.3125q-1.609375 0 -2.484375 -0.78125q-0.875 -0.796875 -0.875 -2.03125q0 -0.734375 0.328125 -1.328125q0.328125 -0.59375 0.859375 -0.953125q0.53125 -0.359375 1.203125 -0.546875q0.5 -0.140625 1.484375 -0.25q2.03125 -0.25 2.984375 -0.578125q0 -0.34375 0 -0.4375q0 -1.015625 -0.46875 -1.4375q-0.640625 -0.5625 -1.90625 -0.5625q-1.171875 0 -1.734375 0.40625q-0.5625 0.40625 -0.828125 1.46875l-1.640625 -0.234375q0.234375 -1.046875 0.734375 -1.6875q0.515625 -0.640625 1.46875 -0.984375q0.96875 -0.359375 2.25 -0.359375q1.265625 0 2.046875 0.296875q0.78125 0.296875 1.15625 0.75q0.375 0.453125 0.515625 1.140625q0.09375 0.421875 0.09375 1.53125l0 2.234375q0 2.328125 0.09375 2.953125q0.109375 0.609375 0.4375 1.171875l-1.75 0q-0.265625 -0.515625 -0.328125 -1.21875zm-0.140625 -3.71875q-0.90625 0.359375 -2.734375 0.625q-1.03125 0.140625 -1.453125 0.328125q-0.421875 0.1875 -0.65625 0.546875q-0.234375 0.359375 -0.234375 0.796875q0 0.671875 0.5 1.125q0.515625 0.4375 1.484375 0.4375q0.96875 0 1.71875 -0.421875q0.75 -0.4375 1.109375 -1.15625q0.265625 -0.578125 0.265625 -1.671875l0 -0.609375zm3.4069824 2.0l1.65625 -0.265625q0.140625 1.0 0.765625 1.53125q0.640625 0.515625 1.78125 0.515625q1.15625 0 1.703125 -0.46875q0.5625 -0.46875 0.5625 -1.09375q0 -0.5625 -0.484375 -0.890625q-0.34375 -0.21875 -1.703125 -0.5625q-1.84375 -0.46875 -2.5625 -0.796875q-0.703125 -0.34375 -1.078125 -0.9375q-0.359375 -0.609375 -0.359375 -1.328125q0 -0.65625 0.296875 -1.21875q0.3125 -0.5625 0.828125 -0.9375q0.390625 -0.28125 1.0625 -0.484375q0.671875 -0.203125 1.4375 -0.203125q1.171875 0 2.046875 0.34375q0.875 0.328125 1.28125 0.90625q0.421875 0.5625 0.578125 1.515625l-1.625 0.21875q-0.109375 -0.75 -0.65625 -1.171875q-0.53125 -0.4375 -1.5 -0.4375q-1.15625 0 -1.640625 0.390625q-0.484375 0.375 -0.484375 0.875q0 0.328125 0.203125 0.59375q0.203125 0.265625 0.640625 0.4375q0.25 0.09375 1.46875 0.4375q1.765625 0.46875 2.46875 0.765625q0.703125 0.296875 1.09375 0.875q0.40625 0.578125 0.40625 1.4375q0 0.828125 -0.484375 1.578125q-0.484375 0.734375 -1.40625 1.140625q-0.921875 0.390625 -2.078125 0.390625q-1.921875 0 -2.9375 -0.796875q-1.0 -0.796875 -1.28125 -2.359375zm16.75 -0.234375l1.71875 0.21875q-0.40625 1.5 -1.515625 2.34375q-1.09375 0.828125 -2.8125 0.828125q-2.15625 0 -3.421875 -1.328125q-1.265625 -1.328125 -1.265625 -3.734375q0 -2.484375 1.265625 -3.859375q1.28125 -1.375 3.328125 -1.375q1.984375 0 3.234375 1.34375q1.25 1.34375 1.25 3.796875q0 0.140625 -0.015625 0.4375l-7.34375 0q0.09375 1.625 0.921875 2.484375q0.828125 0.859375 2.0625 0.859375q0.90625 0 1.546875 -0.46875q0.65625 -0.484375 1.046875 -1.546875zm-5.484375 -2.703125l5.5 0q-0.109375 -1.234375 -0.625 -1.859375q-0.796875 -0.96875 -2.078125 -0.96875q-1.140625 0 -1.9375 0.78125q-0.78125 0.765625 -0.859375 2.046875zm12.766357 4.375l0.234375 1.484375q-0.703125 0.140625 -1.265625 0.140625q-0.90625 0 -1.40625 -0.28125q-0.5 -0.296875 -0.703125 -0.75q-0.203125 -0.46875 -0.203125 -1.984375l0 -5.65625l-1.234375 0l0 -1.3125l1.234375 0l0 -2.4375l1.65625 -1.0l0 3.4375l1.6875 0l0 1.3125l-1.6875 0l0 5.75q0 0.71875 0.078125 0.921875q0.09375 0.203125 0.296875 0.328125q0.203125 0.125 0.578125 0.125q0.265625 0 0.734375 -0.078125z" fill-rule="nonzero"></path><path fill="#cccccc" d="m102.3294 109.88976l102.33071 0l0 59.92103l-11.984497 11.984482l-90.346214 0z" fill-rule="nonzero"></path><path fill="#a3a3a3" d="m192.67561 181.79527l2.3968964 -9.587585l9.587601 -2.3968964z" fill-rule="nonzero"></path><path fill="#000000" fill-opacity="0.0" d="m192.67561 181.79527l2.3968964 -9.587585l9.587601 -2.3968964l-11.984497 11.984482l-90.346214 0l0 -71.90551l102.33071 0l0 59.92103" fill-rule="nonzero"></path><path stroke="#000000" stroke-width="2.0" stroke-linejoin="round" stroke-linecap="butt" d="m192.67561 181.79527l2.3968964 -9.587585l9.587601 -2.3968964l-11.984497 11.984482l-90.346214 0l0 -71.90551l102.33071 0l0 59.92103" fill-rule="nonzero"></path><path fill="#000000" d="m140.02658 146.77028l0 -13.59375l9.171875 0l0 1.59375l-7.375 0l0 4.21875l6.375 0l0 1.609375l-6.375 0l0 6.171875l-1.796875 0zm11.099106 -11.6875l0 -1.90625l1.671875 0l0 1.90625l-1.671875 0zm0 11.6875l0 -9.859375l1.671875 0l0 9.859375l-1.671875 0zm4.097946 0l0 -13.59375l1.671875 0l0 13.59375l-1.671875 0zm10.926071 -3.171875l1.71875 0.21875q-0.40625 1.5 -1.515625 2.34375q-1.09375 0.828125 -2.8125 0.828125q-2.15625 0 -3.421875 -1.328125q-1.265625 -1.328125 -1.265625 -3.734375q0 -2.484375 1.265625 -3.859375q1.28125 -1.375 3.328125 -1.375q1.984375 0 3.234375 1.34375q1.25 1.34375 1.25 3.796875q0 0.140625 -0.015625 0.4375l-7.34375 0q0.09375 1.625 0.921875 2.484375q0.828125 0.859375 2.0625 0.859375q0.90625 0 1.546875 -0.46875q0.65625 -0.484375 1.046875 -1.546875zm-5.484375 -2.703125l5.5 0q-0.109375 -1.234375 -0.625 -1.859375q-0.796875 -0.96875 -2.078125 -0.96875q-1.140625 0 -1.9375 0.78125q-0.78125 0.765625 -0.859375 2.046875z" fill-rule="nonzero"></path><path fill="#cccccc" d="m204.66011 109.88976l102.3307 0l0 59.92103l-11.984497 11.984482l-90.34621 0z" fill-rule="nonzero"></path><path fill="#a3a3a3" d="m295.00632 181.79527l2.3969116 -9.587585l9.587585 -2.3968964z" fill-rule="nonzero"></path><path fill="#000000" fill-opacity="0.0" d="m295.00632 181.79527l2.3969116 -9.587585l9.587585 -2.3968964l-11.984497 11.984482l-90.34621 0l0 -71.90551l102.3307 0l0 59.92103" fill-rule="nonzero"></path><path stroke="#000000" stroke-width="2.0" stroke-linejoin="round" stroke-linecap="butt" d="m295.00632 181.79527l2.3969116 -9.587585l9.587585 -2.3968964l-11.984497 11.984482l-90.34621 0l0 -71.90551l102.3307 0l0 59.92103" fill-rule="nonzero"></path><path fill="#000000" d="m242.35728 146.77028l0 -13.59375l9.171875 0l0 1.59375l-7.375 0l0 4.21875l6.375 0l0 1.609375l-6.375 0l0 6.171875l-1.796875 0zm11.099106 -11.6875l0 -1.90625l1.671875 0l0 1.90625l-1.671875 0zm0 11.6875l0 -9.859375l1.671875 0l0 9.859375l-1.671875 0zm4.0979614 0l0 -13.59375l1.671875 0l0 13.59375l-1.671875 0zm10.926056 -3.171875l1.71875 0.21875q-0.40625 1.5 -1.515625 2.34375q-1.09375 0.828125 -2.8125 0.828125q-2.15625 0 -3.421875 -1.328125q-1.265625 -1.328125 -1.265625 -3.734375q0 -2.484375 1.265625 -3.859375q1.28125 -1.375 3.328125 -1.375q1.984375 0 3.234375 1.34375q1.25 1.34375 1.25 3.796875q0 0.140625 -0.015625 0.4375l-7.34375 0q0.09375 1.625 0.921875 2.484375q0.828125 0.859375 2.0625 0.859375q0.90625 0 1.546875 -0.46875q0.65625 -0.484375 1.046875 -1.546875zm-5.484375 -2.703125l5.5 0q-0.109375 -1.234375 -0.625 -1.859375q-0.796875 -0.96875 -2.078125 -0.96875q-1.140625 0 -1.9375 0.78125q-0.78125 0.765625 -0.859375 2.046875z" fill-rule="nonzero"></path><path fill="#cccccc" d="m306.9908 109.88976l102.33072 0l0 59.92103l-11.984497 11.984482l-90.34622 0z" fill-rule="nonzero"></path><path fill="#a3a3a3" d="m397.33704 181.79527l2.396881 -9.587585l9.587616 -2.3968964z" fill-rule="nonzero"></path><path fill="#000000" fill-opacity="0.0" d="m397.33704 181.79527l2.396881 -9.587585l9.587616 -2.3968964l-11.984497 11.984482l-90.34622 0l0 -71.90551l102.33072 0l0 59.92103" fill-rule="nonzero"></path><path stroke="#000000" stroke-width="2.0" stroke-linejoin="round" stroke-linecap="butt" d="m397.33704 181.79527l2.396881 -9.587585l9.587616 -2.3968964l-11.984497 11.984482l-90.34622 0l0 -71.90551l102.33072 0l0 59.92103" fill-rule="nonzero"></path><path fill="#000000" d="m344.688 146.77028l0 -13.59375l9.171875 0l0 1.59375l-7.375 0l0 4.21875l6.375 0l0 1.609375l-6.375 0l0 6.171875l-1.796875 0zm11.099121 -11.6875l0 -1.90625l1.671875 0l0 1.90625l-1.671875 0zm0 11.6875l0 -9.859375l1.671875 0l0 9.859375l-1.671875 0zm4.097931 0l0 -13.59375l1.671875 0l0 13.59375l-1.671875 0zm10.926086 -3.171875l1.71875 0.21875q-0.40625 1.5 -1.515625 2.34375q-1.09375 0.828125 -2.8125 0.828125q-2.15625 0 -3.421875 -1.328125q-1.265625 -1.328125 -1.265625 -3.734375q0 -2.484375 1.265625 -3.859375q1.28125 -1.375 3.328125 -1.375q1.984375 0 3.234375 1.34375q1.25 1.34375 1.25 3.796875q0 0.140625 -0.015625 0.4375l-7.34375 0q0.09375 1.625 0.921875 2.484375q0.828125 0.859375 2.0625 0.859375q0.90625 0 1.546875 -0.46875q0.65625 -0.484375 1.046875 -1.546875zm-5.484375 -2.703125l5.5 0q-0.109375 -1.234375 -0.625 -1.859375q-0.796875 -0.96875 -2.078125 -0.96875q-1.140625 0 -1.9375 0.78125q-0.78125 0.765625 -0.859375 2.046875z" fill-rule="nonzero"></path><path fill="#cccccc" d="m409.32153 109.88976l102.33069 0l0 59.92103l-11.984497 11.984482l-90.34619 0z" fill-rule="nonzero"></path><path fill="#a3a3a3" d="m499.66772 181.79527l2.3969116 -9.587585l9.587585 -2.3968964z" fill-rule="nonzero"></path><path fill="#000000" fill-opacity="0.0" d="m499.66772 181.79527l2.3969116 -9.587585l9.587585 -2.3968964l-11.984497 11.984482l-90.34619 0l0 -71.90551l102.33069 0l0 59.92103" fill-rule="nonzero"></path><path stroke="#000000" stroke-width="2.0" stroke-linejoin="round" stroke-linecap="butt" d="m499.66772 181.79527l2.3969116 -9.587585l9.587585 -2.3968964l-11.984497 11.984482l-90.34619 0l0 -71.90551l102.33069 0l0 59.92103" fill-rule="nonzero"></path><path fill="#000000" d="m447.0187 146.77028l0 -13.59375l9.171875 0l0 1.59375l-7.375 0l0 4.21875l6.375 0l0 1.609375l-6.375 0l0 6.171875l-1.796875 0zm11.099121 -11.6875l0 -1.90625l1.671875 0l0 1.90625l-1.671875 0zm0 11.6875l0 -9.859375l1.671875 0l0 9.859375l-1.671875 0zm4.097931 0l0 -13.59375l1.671875 0l0 13.59375l-1.671875 0zm10.926086 -3.171875l1.71875 0.21875q-0.40625 1.5 -1.515625 2.34375q-1.09375 0.828125 -2.8125 0.828125q-2.15625 0 -3.421875 -1.328125q-1.265625 -1.328125 -1.265625 -3.734375q0 -2.484375 1.265625 -3.859375q1.28125 -1.375 3.328125 -1.375q1.984375 0 3.234375 1.34375q1.25 1.34375 1.25 3.796875q0 0.140625 -0.015625 0.4375l-7.34375 0q0.09375 1.625 0.921875 2.484375q0.828125 0.859375 2.0625 0.859375q0.90625 0 1.546875 -0.46875q0.65625 -0.484375 1.046875 -1.546875zm-5.484375 -2.703125l5.5 0q-0.109375 -1.234375 -0.625 -1.859375q-0.796875 -0.96875 -2.078125 -0.96875q-1.140625 0 -1.9375 0.78125q-0.78125 0.765625 -0.859375 2.046875z" fill-rule="nonzero"></path><path fill="#000000" fill-opacity="0.0" d="m754.01575 52.769028l-82.39368 0" fill-rule="nonzero"></path><path stroke="#000000" stroke-width="1.0" stroke-linejoin="round" stroke-linecap="butt" d="m754.01575 52.769028l-76.39368 0" fill-rule="evenodd"></path><path fill="#000000" stroke="#000000" stroke-width="1.0" stroke-linecap="butt" d="m677.6221 51.1173l-4.538147 1.6517296l4.538147 1.6517334z" fill-rule="evenodd"></path><path fill="#000000" fill-opacity="0.0" d="m678.83466 57.855644l133.22833 0l0 46.960632l-133.22833 0z" fill-rule="nonzero"></path><path fill="#000000" d="m689.06903 84.77564l0 -9.859375l1.5 0l0 1.5q0.578125 -1.046875 1.0625 -1.375q0.484375 -0.34375 1.078125 -0.34375q0.84375 0 1.71875 0.546875l-0.578125 1.546875q-0.609375 -0.359375 -1.234375 -0.359375q-0.546875 0 -0.984375 0.328125q-0.421875 0.328125 -0.609375 0.90625q-0.28125 0.890625 -0.28125 1.953125l0 5.15625l-1.671875 0zm12.9782715 -3.171875l1.71875 0.21875q-0.40625 1.5 -1.515625 2.34375q-1.09375 0.828125 -2.8125 0.828125q-2.15625 0 -3.421875 -1.328125q-1.265625 -1.328125 -1.265625 -3.734375q0 -2.484375 1.265625 -3.859375q1.28125 -1.375 3.328125 -1.375q1.984375 0 3.234375 1.34375q1.25 1.34375 1.25 3.796875q0 0.140625 -0.015625 0.4375l-7.34375 0q0.09375 1.625 0.921875 2.484375q0.828125 0.859375 2.0625 0.859375q0.90625 0 1.546875 -0.46875q0.65625 -0.484375 1.046875 -1.546875zm-5.484375 -2.703125l5.5 0q-0.109375 -1.234375 -0.625 -1.859375q-0.796875 -0.96875 -2.078125 -0.96875q-1.140625 0 -1.9375 0.78125q-0.78125 0.765625 -0.859375 2.046875zm15.547607 2.265625l1.640625 0.21875q-0.265625 1.6875 -1.375 2.65625q-1.109375 0.953125 -2.734375 0.953125q-2.015625 0 -3.25 -1.3125q-1.21875 -1.328125 -1.21875 -3.796875q0 -1.59375 0.515625 -2.78125q0.53125 -1.203125 1.609375 -1.796875q1.09375 -0.609375 2.359375 -0.609375q1.609375 0 2.625 0.8125q1.015625 0.8125 1.3125 2.3125l-1.625 0.25q-0.234375 -1.0 -0.828125 -1.5q-0.59375 -0.5 -1.421875 -0.5q-1.265625 0 -2.0625 0.90625q-0.78125 0.90625 -0.78125 2.859375q0 1.984375 0.765625 2.890625q0.765625 0.890625 1.984375 0.890625q0.984375 0 1.640625 -0.59375q0.65625 -0.609375 0.84375 -1.859375zm2.265625 -1.3125q0 -2.734375 1.53125 -4.0625q1.265625 -1.09375 3.09375 -1.09375q2.03125 0 3.3125 1.34375q1.296875 1.328125 1.296875 3.671875q0 1.90625 -0.578125 3.0q-0.5625 1.078125 -1.65625 1.6875q-1.078125 0.59375 -2.375 0.59375q-2.0625 0 -3.34375 -1.328125q-1.28125 -1.328125 -1.28125 -3.8125zm1.71875 0q0 1.890625 0.828125 2.828125q0.828125 0.9375 2.078125 0.9375q1.25 0 2.0625 -0.9375q0.828125 -0.953125 0.828125 -2.890625q0 -1.828125 -0.828125 -2.765625q-0.828125 -0.9375 -2.0625 -0.9375q-1.25 0 -2.078125 0.9375q-0.828125 0.9375 -0.828125 2.828125zm9.266357 4.921875l0 -9.859375l1.5 0l0 1.5q0.578125 -1.046875 1.0625 -1.375q0.484375 -0.34375 1.078125 -0.34375q0.84375 0 1.71875 0.546875l-0.578125 1.546875q-0.609375 -0.359375 -1.234375 -0.359375q-0.546875 0 -0.984375 0.328125q-0.421875 0.328125 -0.609375 0.90625q-0.28125 0.890625 -0.28125 1.953125l0 5.15625l-1.671875 0zm12.6188965 0l0 -1.25q-0.9375 1.46875 -2.75 1.46875q-1.171875 0 -2.171875 -0.640625q-0.984375 -0.65625 -1.53125 -1.8125q-0.53125 -1.171875 -0.53125 -2.6875q0 -1.46875 0.484375 -2.671875q0.5 -1.203125 1.46875 -1.84375q0.984375 -0.640625 2.203125 -0.640625q0.890625 0 1.578125 0.375q0.703125 0.375 1.140625 0.984375l0 -4.875l1.65625 0l0 13.59375l-1.546875 0zm-5.28125 -4.921875q0 1.890625 0.796875 2.828125q0.8125 0.9375 1.890625 0.9375q1.09375 0 1.859375 -0.890625q0.765625 -0.890625 0.765625 -2.734375q0 -2.015625 -0.78125 -2.953125q-0.78125 -0.953125 -1.921875 -0.953125q-1.109375 0 -1.859375 0.90625q-0.75 0.90625 -0.75 2.859375zm14.434021 4.921875l0 -9.859375l1.5 0l0 1.5q0.578125 -1.046875 1.0625 -1.375q0.484375 -0.34375 1.078125 -0.34375q0.84375 0 1.71875 0.546875l-0.578125 1.546875q-0.609375 -0.359375 -1.234375 -0.359375q-0.546875 0 -0.984375 0.328125q-0.421875 0.328125 -0.609375 0.90625q-0.28125 0.890625 -0.28125 1.953125l0 5.15625l-1.671875 0zm5.6033325 -4.921875q0 -2.734375 1.53125 -4.0625q1.265625 -1.09375 3.09375 -1.09375q2.03125 0 3.3125 1.34375q1.296875 1.328125 1.296875 3.671875q0 1.90625 -0.578125 3.0q-0.5625 1.078125 -1.65625 1.6875q-1.078125 0.59375 -2.375 0.59375q-2.0625 0 -3.34375 -1.328125q-1.28125 -1.328125 -1.28125 -3.8125zm1.71875 0q0 1.890625 0.828125 2.828125q0.828125 0.9375 2.078125 0.9375q1.25 0 2.0625 -0.9375q0.828125 -0.953125 0.828125 -2.890625q0 -1.828125 -0.828125 -2.765625q-0.828125 -0.9375 -2.0625 -0.9375q-1.25 0 -2.078125 0.9375q-0.828125 0.9375 -0.828125 2.828125zm11.110107 4.921875l-3.015625 -9.859375l1.71875 0l1.5625 5.6875l0.59375 2.125q0.03125 -0.15625 0.5 -2.03125l1.578125 -5.78125l1.71875 0l1.46875 5.71875l0.484375 1.890625l0.578125 -1.90625l1.6875 -5.703125l1.625 0l-3.078125 9.859375l-1.734375 0l-1.578125 -5.90625l-0.375 -1.671875l-2.0 7.578125l-1.734375 0z" fill-rule="nonzero"></path><path fill="#000000" fill-opacity="0.0" d="m511.65353 52.769028l-51.18109 0l0 57.133858" fill-rule="nonzero"></path><path stroke="#000000" stroke-width="1.0" stroke-linejoin="round" stroke-linecap="butt" d="m511.65353 52.769028l-51.18109 0l0 51.133858" fill-rule="evenodd"></path><path fill="#000000" stroke="#000000" stroke-width="1.0" stroke-linecap="butt" d="m458.8207 103.902885l1.6517334 4.538101l1.6517334 -4.538101z" fill-rule="evenodd"></path><path fill="#000000" fill-opacity="0.0" d="m371.8058 0l133.22833 0l0 46.96063l-133.22833 0z" fill-rule="nonzero"></path><path fill="#000000" d="m416.05066 23.310623l1.640625 0.21875q-0.265625 1.6875 -1.375 2.65625q-1.109375 0.953125 -2.734375 0.953125q-2.015625 0 -3.25 -1.3125q-1.21875 -1.328125 -1.21875 -3.796875q0 -1.59375 0.515625 -2.78125q0.53125 -1.203125 1.609375 -1.796875q1.09375 -0.609375 2.359375 -0.609375q1.609375 0 2.625 0.8125q1.015625 0.8125 1.3125 2.3125l-1.625 0.25q-0.234375 -1.0 -0.828125 -1.5q-0.59375 -0.5 -1.421875 -0.5q-1.265625 0 -2.0625 0.90625q-0.78125 0.90625 -0.78125 2.859375q0 1.984375 0.765625 2.890625q0.765625 0.890625 1.984375 0.890625q0.984375 0 1.640625 -0.59375q0.65625 -0.609375 0.84375 -1.859375zm2.265625 -1.3125q0 -2.734375 1.53125 -4.0625q1.265625 -1.09375 3.09375 -1.09375q2.03125 0 3.3125 1.34375q1.296875 1.328125 1.296875 3.671875q0 1.90625 -0.578125 3.0q-0.5625 1.078125 -1.65625 1.6875q-1.078125 0.59375 -2.375 0.59375q-2.0625 0 -3.34375 -1.328125q-1.28125 -1.328125 -1.28125 -3.8125zm1.71875 0q0 1.890625 0.828125 2.828125q0.828125 0.9375 2.078125 0.9375q1.25 0 2.0625 -0.9375q0.828125 -0.953125 0.828125 -2.890625q0 -1.828125 -0.828125 -2.765625q-0.828125 -0.9375 -2.0625 -0.9375q-1.25 0 -2.078125 0.9375q-0.828125 0.9375 -0.828125 2.828125zm9.281982 4.921875l0 -9.859375l1.5 0l0 1.390625q0.453125 -0.71875 1.21875 -1.15625q0.78125 -0.453125 1.765625 -0.453125q1.09375 0 1.796875 0.453125q0.703125 0.453125 0.984375 1.28125q1.171875 -1.734375 3.046875 -1.734375q1.46875 0 2.25 0.8125q0.796875 0.8125 0.796875 2.5l0 6.765625l-1.671875 0l0 -6.203125q0 -1.0 -0.15625 -1.4375q-0.15625 -0.453125 -0.59375 -0.71875q-0.421875 -0.265625 -1.0 -0.265625q-1.03125 0 -1.71875 0.6875q-0.6875 0.6875 -0.6875 2.21875l0 5.71875l-1.671875 0l0 -6.40625q0 -1.109375 -0.40625 -1.65625q-0.40625 -0.5625 -1.34375 -0.5625q-0.703125 0 -1.3125 0.375q-0.59375 0.359375 -0.859375 1.078125q-0.265625 0.71875 -0.265625 2.0625l0 5.109375l-1.671875 0zm15.540802 0l0 -9.859375l1.5 0l0 1.390625q0.453125 -0.71875 1.21875 -1.15625q0.78125 -0.453125 1.765625 -0.453125q1.09375 0 1.796875 0.453125q0.703125 0.453125 0.984375 1.28125q1.171875 -1.734375 3.046875 -1.734375q1.46875 0 2.25 0.8125q0.796875 0.8125 0.796875 2.5l0 6.765625l-1.671875 0l0 -6.203125q0 -1.0 -0.15625 -1.4375q-0.15625 -0.453125 -0.59375 -0.71875q-0.421875 -0.265625 -1.0 -0.265625q-1.03125 0 -1.71875 0.6875q-0.6875 0.6875 -0.6875 2.21875l0 5.71875l-1.671875 0l0 -6.40625q0 -1.109375 -0.40625 -1.65625q-0.40625 -0.5625 -1.34375 -0.5625q-0.703125 0 -1.3125 0.375q-0.59375 0.359375 -0.859375 1.078125q-0.265625 0.71875 -0.265625 2.0625l0 5.109375l-1.671875 0zm15.556427 -11.6875l0 -1.90625l1.671875 0l0 1.90625l-1.671875 0zm0 11.6875l0 -9.859375l1.671875 0l0 9.859375l-1.671875 0zm7.785431 -1.5l0.234375 1.484375q-0.703125 0.140625 -1.265625 0.140625q-0.90625 0 -1.40625 -0.28125q-0.5 -0.296875 -0.703125 -0.75q-0.203125 -0.46875 -0.203125 -1.984375l0 -5.65625l-1.234375 0l0 -1.3125l1.234375 0l0 -2.4375l1.65625 -1.0l0 3.4375l1.6875 0l0 1.3125l-1.6875 0l0 5.75q0 0.71875 0.078125 0.921875q0.09375 0.203125 0.296875 0.328125q0.203125 0.125 0.578125 0.125q0.265625 0 0.734375 -0.078125z" fill-rule="nonzero"></path><path fill="#000000" fill-opacity="0.0" d="m511.65222 109.88976l102.33069 0l0 59.92103l-11.984436 11.984482l-90.34625 0z" fill-rule="nonzero"></path><path fill="#000000" fill-opacity="0.0" d="m601.9985 181.79527l2.3968506 -9.587585l9.587585 -2.3968964z" fill-rule="nonzero"></path><path fill="#000000" fill-opacity="0.0" d="m601.9985 181.79527l2.3968506 -9.587585l9.587585 -2.3968964l-11.984436 11.984482l-90.34625 0l0 -71.90551l102.33069 0l0 59.92103" fill-rule="nonzero"></path><path fill="#000000" fill-opacity="0.2" d="m601.9985 181.79527l2.3968506 -9.587585l9.587585 -2.3968964z" fill-rule="nonzero"></path><path stroke="#000000" stroke-width="2.0" stroke-linejoin="round" stroke-linecap="butt" stroke-dasharray="2.0,6.0" d="m601.9985 181.79527l2.3968506 -9.587585l9.587585 -2.3968964l-11.984436 11.984482l-90.34625 0l0 -71.90551l102.33069 0l0 59.92103" fill-rule="nonzero"></path><path fill="#cccccc" d="m-0.001312336 109.88976l102.33071 0l0 59.92103l-11.984497 11.984482l-90.346214 0z" fill-rule="nonzero"></path><path fill="#a3a3a3" d="m90.3449 181.79527l2.396904 -9.587585l9.587593 -2.3968964z" fill-rule="nonzero"></path><path fill="#000000" fill-opacity="0.0" d="m90.3449 181.79527l2.396904 -9.587585l9.587593 -2.3968964l-11.984497 11.984482l-90.346214 0l0 -71.90551l102.33071 0l0 59.92103" fill-rule="nonzero"></path><path stroke="#000000" stroke-width="2.0" stroke-linejoin="round" stroke-linecap="butt" stroke-dasharray="8.0,6.0" d="m90.3449 181.79527l2.396904 -9.587585l9.587593 -2.3968964l-11.984497 11.984482l-90.346214 0l0 -71.90551l102.33071 0l0 59.92103" fill-rule="nonzero"></path><path fill="#000000" d="m37.695873 146.77028l0 -13.59375l9.171875 0l0 1.59375l-7.375 0l0 4.21875l6.375 0l0 1.609375l-6.375 0l0 6.171875l-1.796875 0zm11.099106 -11.6875l0 -1.90625l1.671875 0l0 1.90625l-1.671875 0zm0 11.6875l0 -9.859375l1.671875 0l0 9.859375l-1.671875 0zm4.097946 0l0 -13.59375l1.671875 0l0 13.59375l-1.671875 0zm10.926071 -3.171875l1.7187538 0.21875q-0.40625 1.5 -1.515625 2.34375q-1.0937538 0.828125 -2.8125038 0.828125q-2.15625 0 -3.421875 -1.328125q-1.265625 -1.328125 -1.265625 -3.734375q0 -2.484375 1.265625 -3.859375q1.28125 -1.375 3.328125 -1.375q1.984375 0 3.2343788 1.34375q1.25 1.34375 1.25 3.796875q0 0.140625 -0.015625 0.4375l-7.343754 0q0.09375 1.625 0.921875 2.484375q0.828125 0.859375 2.0625 0.859375q0.90625 0 1.546875 -0.46875q0.65625 -0.484375 1.046875 -1.546875zm-5.484375 -2.703125l5.5 0q-0.109375 -1.234375 -0.625 -1.859375q-0.796875 -0.96875 -2.078125 -0.96875q-1.140625 0 -1.9375 0.78125q-0.78125 0.765625 -0.859375 2.046875z" fill-rule="nonzero"></path></g></svg>

